<svg width="500" height="500" viewBox="0 0 500 500" fill="none" xmlns="http://www.w3.org/2000/svg">
<path d="M52.1399 379.2L59.3499 426.58H101.23L110.95 379.89L52.1399 379.2Z" fill="#40074F"/>
<path d="M105.09 409.57C105.09 409.7 94.3598 409.81 81.0898 409.81C67.8198 409.81 57.0898 409.7 57.0898 409.57C57.0898 409.44 67.8198 409.32 81.0898 409.32C94.3598 409.32 105.09 409.43 105.09 409.57Z" fill="#D6B6E6"/>
<path d="M105.26 407.24C105.26 407.37 94.45 407.48 81.13 407.48C67.81 407.48 57 407.37 57 407.24C57 407.11 67.8 407 81.13 407C94.46 407 105.26 407.1 105.26 407.24Z" fill="#D6B6E6"/>
<path d="M105.17 404.6C105.17 404.74 94.3699 404.85 81.0399 404.85C67.7099 404.85 56.9099 404.74 56.9099 404.6C56.9099 404.46 67.7099 404.36 81.0399 404.36C94.3699 404.36 105.17 404.47 105.17 404.6Z" fill="#D6B6E6"/>
<path d="M64.1601 423.88C63.5671 421.919 63.1357 419.912 62.8701 417.88C62.4476 415.887 62.1801 413.864 62.0701 411.83C62.663 413.792 63.0945 415.798 63.3601 417.83C63.7837 419.823 64.0512 421.846 64.1601 423.88V423.88Z" fill="#D6B6E6"/>
<path d="M66.9999 423.37C66.702 421.443 66.5283 419.499 66.4799 417.55C66.2687 415.614 66.1751 413.667 66.1999 411.72C66.6643 413.62 66.9224 415.565 66.9699 417.52C67.1811 419.464 67.1911 421.424 66.9999 423.37V423.37Z" fill="#D6B6E6"/>
<path d="M72.2 423.37C71.2211 419.446 70.7473 415.414 70.79 411.37C71.1761 413.353 71.4465 415.356 71.6 417.37C71.9137 419.357 72.114 421.36 72.2 423.37V423.37Z" fill="#D6B6E6"/>
<path d="M75.85 423.62C75.4402 421.627 75.2425 419.595 75.26 417.56C75.1153 415.529 75.1789 413.488 75.45 411.47C75.6681 413.486 75.7716 415.513 75.76 417.54C75.8987 419.564 75.9288 421.593 75.85 423.62V423.62Z" fill="#D6B6E6"/>
<path d="M82.3 423.37C81.9893 421.47 81.8421 419.546 81.86 417.62C81.6925 415.7 81.6925 413.77 81.86 411.85C82.1646 413.751 82.3118 415.675 82.3 417.6C82.4612 419.52 82.4612 421.45 82.3 423.37V423.37Z" fill="#D6B6E6"/>
<path d="M87 423.62C86.7764 421.645 86.7096 419.656 86.8 417.67C86.734 415.682 86.8343 413.692 87.1 411.72C87.3231 413.695 87.39 415.685 87.3 417.67C87.366 419.658 87.2656 421.649 87 423.62V423.62Z" fill="#D6B6E6"/>
<path d="M91.4299 423C91.5097 418.842 91.9109 414.696 92.6299 410.6C92.6806 412.683 92.5636 414.766 92.2799 416.83C92.164 418.906 91.8798 420.97 91.4299 423V423Z" fill="#D6B6E6"/>
<path d="M97.1299 422.37C97.1364 420.584 97.3717 418.806 97.8299 417.08C98.1381 415.329 98.6621 413.622 99.3899 412C99.1314 413.756 98.7708 415.496 98.3099 417.21C98.0157 418.951 97.6217 420.674 97.1299 422.37Z" fill="#D6B6E6"/>
<path d="M47.3301 369.82V378.69C47.3301 379.148 47.4203 379.602 47.5957 380.026C47.7711 380.449 48.0282 380.834 48.3523 381.158C48.6763 381.482 49.0611 381.739 49.4845 381.914C49.9079 382.09 50.3618 382.18 50.8201 382.18H111.47C111.928 382.18 112.382 382.09 112.806 381.914C113.229 381.739 113.614 381.482 113.938 381.158C114.262 380.834 114.519 380.449 114.694 380.026C114.87 379.602 114.96 379.148 114.96 378.69V369.82H47.3301Z" fill="#40074F"/>
<path d="M52.5898 382.18L53.0898 385L109.06 388.99L110.47 382.18H52.5898Z" fill="#D6B6E6"/>
<path d="M56.46 369.87C56.46 369.87 32.88 342.68 35.46 341.7C38.04 340.72 59.04 355.78 59.04 355.78C59.04 355.78 41.04 315.5 44.63 312.55C48.22 309.6 67.23 348.25 67.23 348.25C67.23 348.25 64.23 291.92 67.23 291.25C70.23 290.58 81 347.6 81 347.6C81 347.6 97 295.52 101.63 295.52C106.26 295.52 96.72 345.63 96.72 345.63C96.72 345.63 115.72 313.54 118.66 317.79C121.6 322.04 105.23 356.79 105.23 356.79C105.23 356.79 129.14 336.79 130.12 339.43C131.1 342.07 104.25 369.89 104.25 369.89L56.46 369.87Z" fill="#D6B6E6"/>
<path d="M53.1699 328.93C53.3399 328.85 57.5199 337.82 62.5199 348.93C67.5199 360.04 71.4298 369.15 71.2698 369.23C71.1098 369.31 66.9199 360.33 61.9299 349.23C56.9399 338.13 52.9999 329 53.1699 328.93Z" fill="#D6B6E6"/>
<path d="M72.22 333.94C72.4 333.94 73.1 341.83 73.78 351.59C74.46 361.35 74.86 369.27 74.68 369.28C74.5 369.29 73.81 361.4 73.13 351.63C72.45 341.86 72.05 334 72.22 333.94Z" fill="#D6B6E6"/>
<path d="M98.5001 308.71C98.4799 308.928 98.4328 309.143 98.3601 309.35L97.8401 311.14L95.8401 317.7C94.1801 323.24 91.9401 330.91 89.6701 339.44C87.4001 347.97 85.5101 355.74 84.1901 361.37C83.5501 364.12 83.0201 366.37 82.6301 368.04C82.4501 368.77 82.3001 369.37 82.1901 369.85C82.1509 370.065 82.0836 370.273 81.9901 370.47C81.9844 370.254 82.008 370.039 82.0601 369.83C82.1501 369.33 82.2501 368.73 82.3801 367.99C82.6801 366.4 83.1401 364.1 83.7401 361.27C84.9501 355.61 86.7401 347.81 89.0401 339.27C91.3401 330.73 93.6301 323.08 95.4001 317.57C96.2901 314.81 97.0301 312.57 97.5701 311.06C97.8301 310.36 98.0401 309.78 98.2101 309.31C98.2794 309.098 98.377 308.896 98.5001 308.71V308.71Z" fill="#D6B6E6"/>
<path d="M109.86 337.75C110.01 337.85 105.41 344.75 99.5799 353.07C93.7499 361.39 88.9199 368.13 88.7699 368.07C88.6199 368.01 93.2299 361.07 99.0499 352.74C104.87 344.41 109.71 337.64 109.86 337.75Z" fill="#D6B6E6"/>
<path d="M64.4199 369.29C63.6698 368.896 62.9768 368.401 62.3599 367.82C59.2238 365.211 56.3683 362.282 53.8399 359.08C53.2699 358.45 52.7918 357.744 52.4199 356.98C52.5699 356.87 55.0199 359.83 58.3399 363.22C61.6599 366.61 64.5399 369.14 64.4199 369.29Z" fill="#D6B6E6"/>
<path d="M78.74 358.49C78.92 358.49 79.3 360.98 79.58 364.1C79.86 367.22 79.95 369.75 79.77 369.76C79.59 369.77 79.22 367.27 78.94 364.16C78.66 361.05 78.57 358.51 78.74 358.49Z" fill="#D6B6E6"/>
<path d="M465.86 76.0901H361.38V227.53H465.86V76.0901Z" fill="#D6B6E6"/>
<path d="M460.63 76.0901H356.15V227.53H460.63V76.0901Z" fill="#40074F"/>
<path d="M447.65 92.49H369.13V211.12H447.65V92.49Z" fill="#DA9FE9"/>
<path d="M447.64 211.13C447.64 211.13 447.64 210.93 447.64 210.55C447.64 210.17 447.64 209.55 447.64 208.86C447.64 207.37 447.64 205.19 447.64 202.36C447.64 196.67 447.64 188.36 447.57 177.92C447.57 157 447.49 127.38 447.44 92.49L447.7 92.75H369.2L369.48 92.46C369.48 137.22 369.48 178.46 369.42 211.1L369.2 210.87L426.35 210.99L442.14 211.05H446.28H447.71H446.33H442.22H426.49L369.2 211.17H368.97V210.95C368.97 178.33 368.97 137.07 368.91 92.31V92.03H369.21H447.71H447.97V92.29C447.97 127.29 447.88 156.93 447.84 177.89C447.84 188.33 447.84 196.6 447.77 202.27C447.77 205.08 447.77 207.27 447.77 208.72C447.77 209.44 447.77 209.99 447.77 210.38C447.77 210.77 447.64 211.13 447.64 211.13Z" fill="#D6B6E6"/>
<path d="M460.92 76.0901C460.38 77.0479 459.754 77.955 459.05 78.8001C457.84 80.4201 456.12 82.6301 454.15 85.0201C452.18 87.4101 450.35 89.5201 448.99 91.0201C448.295 91.8706 447.525 92.6571 446.69 93.3701C447.28 92.4437 447.949 91.5704 448.69 90.7601C450.09 89.0601 451.82 86.9701 453.69 84.6501L458.69 78.5501C459.358 77.6646 460.104 76.8412 460.92 76.0901V76.0901Z" fill="#D6B6E6"/>
<path d="M448 210.74C451.905 216.949 456.501 222.696 461.7 227.87Z" fill="#DA9FE9"/>
<path d="M461.74 227.87C460.868 227.234 460.067 226.506 459.35 225.7C457.529 223.846 455.803 221.9 454.18 219.87C452.556 217.845 451.041 215.735 449.64 213.55C449.009 212.672 448.473 211.73 448.04 210.74C448.746 211.555 449.392 212.42 449.97 213.33C451.12 214.94 452.74 217.15 454.63 219.52C456.52 221.89 458.32 223.95 459.63 225.42C460.396 226.181 461.101 227 461.74 227.87V227.87Z" fill="#D6B6E6"/>
<path d="M356.13 227.41L369.82 210.52Z" fill="#DA9FE9"/>
<path d="M369.82 210.52C367.76 213.506 365.547 216.383 363.19 219.14C360.982 222.018 358.625 224.778 356.13 227.41C358.184 224.423 360.394 221.545 362.75 218.79C364.962 215.913 367.322 213.153 369.82 210.52V210.52Z" fill="#D6B6E6"/>
<path d="M356.15 76.0901C358.503 78.6063 360.719 81.2468 362.79 84.0001C365.005 86.6501 367.072 89.4211 368.98 92.3001C366.629 89.7715 364.413 87.1212 362.34 84.3601C360.126 81.7198 358.059 78.9589 356.15 76.0901V76.0901Z" fill="#D6B6E6"/>
<path d="M423.18 132.28H396.89V168.41H423.18V132.28Z" fill="#D6B6E6"/>
<path d="M480.19 426.58C480.19 426.72 376.19 426.84 248.01 426.84C119.83 426.84 15.8101 426.72 15.8101 426.58C15.8101 426.44 119.75 426.32 248.01 426.32C376.27 426.32 480.19 426.44 480.19 426.58Z" fill="#40074F"/>
<path d="M301.49 137C300.386 135.153 298.732 133.697 296.759 132.837C294.787 131.976 292.595 131.753 290.49 132.2C287.896 130.414 284.775 129.555 281.632 129.762C278.489 129.969 275.508 131.229 273.17 133.34C271.251 132.334 269.106 131.838 266.941 131.897C264.775 131.957 262.661 132.57 260.8 133.68C258.959 134.842 257.442 136.453 256.393 138.361C255.343 140.269 254.795 142.412 254.8 144.59C252.614 144.389 250.42 144.866 248.514 145.955C246.609 147.045 245.085 148.694 244.15 150.68C243.28 152.718 243.045 154.971 243.477 157.144C243.909 159.317 244.987 161.31 246.57 162.86C244.241 163.784 242.332 165.533 241.207 167.772C240.083 170.012 239.82 172.586 240.469 175.007C241.118 177.427 242.634 179.525 244.729 180.901C246.824 182.277 249.351 182.835 251.83 182.47L300.23 149C301.648 147.372 302.53 145.346 302.756 143.199C302.981 141.052 302.539 138.887 301.49 137V137Z" fill="#40074F"/>
<path d="M250.47 183.92C250.706 173.133 255.017 162.836 262.536 155.098C270.055 147.36 280.225 142.756 291 142.21L293.21 142.11C317.11 142.41 330.34 163.11 329.52 187.28L330.2 267.77L327.43 278L305.11 313.86L278.77 288.75L274.77 264.9C274.77 264.9 251.68 262.37 250.2 239.2C249.49 228 249.88 204.87 250.47 183.92Z" fill="#DA9FE9"/>
<path d="M274.58 264.9C274.58 264.9 289.26 265.11 304.14 254.61C304.14 254.61 298.7 271.61 275.73 270.61L274.58 264.9Z" fill="#40074F"/>
<path d="M258.94 206.33C258.974 207.189 259.338 208.001 259.957 208.598C260.575 209.194 261.401 209.528 262.26 209.53C262.68 209.542 263.099 209.469 263.49 209.316C263.882 209.163 264.238 208.933 264.539 208.639C264.839 208.345 265.078 207.993 265.239 207.605C265.401 207.217 265.483 206.8 265.48 206.38C265.449 205.521 265.085 204.709 264.466 204.113C263.846 203.518 263.019 203.187 262.16 203.19C261.74 203.177 261.322 203.248 260.931 203.4C260.539 203.552 260.182 203.782 259.882 204.075C259.581 204.368 259.343 204.719 259.181 205.106C259.019 205.494 258.937 205.91 258.94 206.33V206.33Z" fill="#40074F"/>
<path d="M255.78 196.23C256.21 196.64 258.59 194.67 262.11 194.51C265.63 194.35 268.31 196.02 268.66 195.56C268.84 195.36 268.39 194.56 267.22 193.83C265.65 192.831 263.808 192.349 261.95 192.45C260.122 192.53 258.369 193.196 256.95 194.35C255.9 195.24 255.57 196 255.78 196.23Z" fill="#40074F"/>
<path d="M290.24 205.2C290.274 206.059 290.64 206.872 291.261 207.467C291.882 208.062 292.71 208.393 293.57 208.39C293.989 208.402 294.407 208.33 294.798 208.177C295.189 208.025 295.545 207.795 295.845 207.502C296.146 207.209 296.384 206.859 296.546 206.472C296.709 206.085 296.792 205.67 296.79 205.25C296.759 204.391 296.395 203.578 295.776 202.983C295.156 202.388 294.329 202.057 293.47 202.06C293.05 202.047 292.631 202.118 292.239 202.27C291.847 202.422 291.49 202.651 291.188 202.944C290.887 203.237 290.647 203.588 290.485 203.976C290.322 204.363 290.238 204.78 290.24 205.2Z" fill="#40074F"/>
<path d="M289.43 194.16C289.86 194.57 292.25 192.6 295.77 192.45C299.29 192.3 301.96 193.95 302.32 193.5C302.49 193.3 302.05 192.5 300.87 191.76C299.298 190.767 297.457 190.285 295.6 190.38C293.772 190.464 292.019 191.134 290.6 192.29C289.55 193.18 289.22 194 289.43 194.16Z" fill="#40074F"/>
<path d="M279.2 221.1C279.2 220.9 276.99 220.62 273.42 220.33C272.52 220.28 271.66 220.13 271.48 219.52C271.353 218.584 271.514 217.632 271.94 216.79C272.67 214.55 273.44 212.21 274.24 209.79C277.43 199.79 279.68 191.52 279.24 191.39C278.8 191.26 275.93 199.3 272.75 209.33C271.977 211.803 271.247 214.167 270.56 216.42C270.05 217.547 269.951 218.817 270.28 220.01C270.424 220.324 270.637 220.6 270.904 220.819C271.171 221.037 271.484 221.191 271.82 221.27C272.325 221.383 272.842 221.433 273.36 221.42C277 221.39 279.19 221.31 279.2 221.1Z" fill="#40074F"/>
<path d="M256.13 186.63C256.76 187.44 259.18 186.63 262.13 186.57C265.08 186.51 267.53 187.12 268.13 186.27C268.38 185.86 267.99 185.05 266.9 184.27C265.453 183.352 263.764 182.889 262.051 182.94C260.337 182.992 258.679 183.556 257.29 184.56C256.19 185.4 255.86 186.23 256.13 186.63Z" fill="#40074F"/>
<path d="M288.75 183.25C289.45 184.05 292.14 183.2 295.38 183.15C298.62 183.1 301.38 183.68 301.99 182.83C302.27 182.41 301.83 181.6 300.62 180.83C298.978 179.913 297.118 179.46 295.238 179.52C293.358 179.58 291.53 180.15 289.95 181.17C288.82 182 288.45 182.85 288.75 183.25Z" fill="#40074F"/>
<path d="M252.13 173.19C252.13 173.19 257.42 158.39 264.13 154.68C272.29 150.18 276.37 159.32 284.24 156.68C292.11 154.04 299.9 149.74 308.37 155.6C317.65 162.02 313.71 167.01 314.79 177.27C319.17 218.87 327.3 230.32 328.43 210.57C328.56 208.41 334.37 206.42 334.78 197.29C335.31 185.44 335.02 171.11 331.99 162.86C329.44 155.86 325.21 151.22 317.81 146.18C306.13 138.23 290.67 138.76 280.23 140.32C269.79 141.88 250.24 155.05 252.13 173.19Z" fill="#40074F"/>
<path d="M327 210C326.978 209.155 327.128 208.313 327.442 207.528C327.756 206.743 328.227 206.03 328.826 205.432C329.426 204.835 330.14 204.366 330.926 204.055C331.713 203.743 332.554 203.595 333.4 203.62C337.7 203.83 342.58 206.07 342.76 215.01C343.07 230.89 327.25 227.84 327.22 227.38C327.17 227.09 327.06 216.66 327 210Z" fill="#DA9FE9"/>
<path d="M330.49 221.38C330.56 221.38 330.77 221.57 331.24 221.78C331.882 222.035 332.598 222.035 333.24 221.78C334.89 221.14 336.24 218.46 336.24 215.6C336.259 214.22 335.969 212.853 335.39 211.6C335.235 211.11 334.964 210.664 334.6 210.3C334.236 209.937 333.79 209.666 333.3 209.51C332.984 209.43 332.65 209.465 332.357 209.608C332.065 209.75 331.832 209.992 331.7 210.29C331.5 210.74 331.6 211.05 331.52 211.08C331.44 211.11 331.18 210.82 331.29 210.16C331.373 209.769 331.584 209.417 331.89 209.16C332.099 208.992 332.339 208.867 332.596 208.793C332.854 208.719 333.124 208.698 333.39 208.73C334.041 208.853 334.649 209.14 335.158 209.563C335.667 209.987 336.06 210.533 336.3 211.15C336.978 212.52 337.32 214.032 337.3 215.56C337.3 218.76 335.71 221.78 333.45 222.48C333.029 222.608 332.585 222.639 332.151 222.571C331.716 222.504 331.302 222.339 330.94 222.09C330.53 221.77 330.44 221.41 330.49 221.38Z" fill="#40074F"/>
<path d="M325.1 179.32C323.1 180.82 321.1 182.37 318.62 182.73C316.14 183.09 313.31 181.8 312.77 179.36C312.53 178.27 312.77 176.97 311.97 176.15C311.06 175.15 309.5 175.57 308.19 175.77C305.895 176.046 303.574 175.524 301.619 174.291C299.663 173.058 298.191 171.19 297.45 169C296.38 170.82 293.66 170.87 291.85 169.8C290.04 168.73 288.8 166.91 287.34 165.38C285.88 163.85 283.88 162.52 281.83 162.91C280.68 163.13 279.63 163.91 278.46 163.83C276.39 163.74 275.27 161.35 274.85 159.3C274.43 157.25 274.06 154.85 272.27 153.81C270.48 152.77 268.54 153.54 266.66 153.91C264.78 154.28 262.31 153.91 261.73 152.09C261.624 151.594 261.618 151.083 261.713 150.585C261.807 150.087 262 149.613 262.28 149.19C263.444 147.219 265.246 145.703 267.388 144.894C269.529 144.085 271.883 144.031 274.06 144.74C274.679 142.076 276.081 139.659 278.086 137.799C280.091 135.939 282.608 134.723 285.311 134.306C288.014 133.89 290.779 134.293 293.251 135.463C295.723 136.632 297.788 138.516 299.18 140.87C300.771 139.285 302.72 138.106 304.863 137.432C307.005 136.759 309.278 136.61 311.49 137C313.709 137.432 315.795 138.381 317.578 139.771C319.361 141.162 320.79 142.953 321.75 145C323.653 144.433 325.679 144.427 327.586 144.982C329.492 145.537 331.198 146.63 332.5 148.13C333.767 149.678 334.571 151.552 334.821 153.537C335.07 155.522 334.754 157.537 333.91 159.35C336.81 160.85 339.37 163.57 339.59 166.84C339.81 170.11 336.83 173.54 333.66 172.84C334.319 174.107 334.496 175.57 334.16 176.958C333.823 178.346 332.996 179.565 331.83 180.39C330.611 181.121 329.166 181.378 327.771 181.112C326.375 180.847 325.125 180.077 324.26 178.95" fill="#40074F"/>
<path d="M334.8 172.71C334.86 172.71 335.16 174.03 333.99 175.81C333.256 176.831 332.169 177.544 330.94 177.81C330.15 177.973 329.333 177.958 328.55 177.766C327.766 177.574 327.035 177.21 326.41 176.7L327.07 176.57C326.319 178.082 325.334 179.466 324.15 180.67C323.357 181.482 322.417 182.137 321.38 182.6C320.394 183.021 319.314 183.173 318.25 183.04C317.345 183.002 316.459 182.767 315.654 182.35C314.849 181.934 314.144 181.347 313.59 180.63C312.911 179.651 312.426 178.551 312.16 177.39C312.007 176.981 311.942 176.545 311.97 176.11C312.04 176.11 312.19 176.53 312.49 177.28C312.858 178.36 313.398 179.373 314.09 180.28C315.69 182.48 320.59 183.42 323.51 180.06C324.629 178.928 325.569 177.633 326.3 176.22L326.56 175.74L326.96 176.09C327.491 176.523 328.108 176.837 328.771 177.009C329.434 177.182 330.126 177.209 330.8 177.09C331.889 176.892 332.87 176.305 333.56 175.44C334.155 174.624 334.577 173.695 334.8 172.71Z" fill="#455A64"/>
<path d="M303.35 137.89C303.35 137.95 302.95 138.02 302.27 138.36C301.285 138.835 300.471 139.604 299.94 140.56L299.77 140.87L299.54 140.59C297.446 138.005 294.732 135.992 291.65 134.74C289.669 133.945 287.543 133.574 285.41 133.65C283.069 133.775 280.809 134.547 278.88 135.88C277.356 136.93 276.074 138.294 275.12 139.88C274.25 141.36 273.743 143.026 273.64 144.74V145.25L273.16 145.14C271.179 144.683 269.1 144.949 267.298 145.89C265.496 146.83 264.089 148.384 263.33 150.27C262.773 151.786 262.522 153.397 262.59 155.01C262.426 154.6 262.341 154.162 262.34 153.72C262.239 152.142 262.556 150.565 263.258 149.149C263.96 147.732 265.023 146.525 266.34 145.65C267.362 144.977 268.506 144.514 269.707 144.286C270.909 144.057 272.143 144.069 273.34 144.32L272.83 144.71C272.913 142.851 273.445 141.039 274.38 139.43C275.388 137.733 276.753 136.276 278.38 135.16C280.443 133.726 282.87 132.907 285.38 132.8C287.63 132.734 289.867 133.154 291.94 134.03C295.121 135.369 297.884 137.538 299.94 140.31H299.54C300.153 139.305 301.081 138.532 302.18 138.11C302.545 137.939 302.948 137.863 303.35 137.89V137.89Z" fill="#455A64"/>
<path d="M278.09 233C278.21 232.64 279.01 232.59 280.09 232.29C281.542 231.905 282.931 231.308 284.21 230.52C284.906 230.079 285.574 229.595 286.21 229.07C286.698 228.624 287.153 228.143 287.57 227.63C288.28 226.75 288.63 226.03 289.01 226.06C289.39 226.09 289.67 227.01 289.21 228.46C288.93 229.284 288.504 230.049 287.95 230.72C287.269 231.502 286.473 232.177 285.59 232.72C283.994 233.752 282.106 234.239 280.21 234.11C278.73 234 278 233.34 278.09 233Z" fill="#40074F"/>
<path d="M376.64 423.57L381.06 343.37L376.91 278.07L331.62 266C331.62 266 325.81 289.88 304.5 292C280.19 294.39 275.29 269.46 275.29 269.46L261.51 270.19L237.19 272.73C228.138 273.623 219.712 277.752 213.46 284.36L213.34 284.49L166.76 334.66L209.91 374.66L226.53 356.41L232.75 415.53L230.88 426.29L373.4 425.29L376.64 423.57Z" fill="#40074F"/>
<path d="M373.87 277.27C373.87 277.27 389.64 283.4 397.2 292.54C411.64 309.98 437.12 338.87 437.12 338.87L393.12 378.25L373.88 359.14L373.87 277.27Z" fill="#40074F"/>
<path d="M380.66 312.69C380.94 312.69 380.53 335.11 379.74 362.75C378.95 390.39 378.11 412.8 377.83 412.75C377.55 412.7 377.97 390.33 378.75 362.68C379.53 335.03 380.39 312.68 380.66 312.69Z" fill="#40074F"/>
<path d="M220.6 299.53C220.87 299.53 222.85 316.3 225.02 337.04C227.19 357.78 228.72 374.62 228.45 374.65C228.18 374.68 226.2 357.89 224.03 337.14C221.86 316.39 220.33 299.56 220.6 299.53Z" fill="#40074F"/>
<g opacity="0.3">
<path opacity="0.3" d="M378.83 369.86C382.65 361.605 384.711 352.645 384.884 343.55C385.056 334.455 383.335 325.424 379.83 317.03L378.83 369.86Z" fill="black"/>
</g>
<g opacity="0.3">
<path opacity="0.3" d="M276.87 371.07C263.39 365 249.03 367.13 244.68 375.6C242.8 384.22 250.68 395.06 263.26 400.74C276.73 406.81 290.67 404.65 295.01 396.18C296.9 387.56 289.46 376.75 276.87 371.07Z" fill="#DA9FE9"/>
</g>
<path d="M277.62 368.35C263.86 362.16 249.46 364.35 245.44 373.28C245.105 374.024 244.85 374.802 244.68 375.6C249.03 367.13 263.12 365.13 276.59 371.2C289.19 376.88 296.86 387.63 294.98 396.25C295.07 396.08 295.16 395.9 295.24 395.72C299.26 386.8 291.37 374.55 277.62 368.35Z" fill="#455A64"/>
<path d="M263.06 400.65C250.47 394.97 242.8 384.22 244.68 375.65C244.59 375.82 244.5 376 244.42 376.18C240.42 385.1 248.29 397.35 262.04 403.55C275.79 409.75 290.2 407.55 294.22 398.62C294.552 397.875 294.807 397.097 294.98 396.3C290.63 404.72 276.54 406.72 263.06 400.65Z" fill="#40074F"/>
<path d="M295.39 403.16C294.804 402.949 294.324 402.517 294.055 401.955C293.785 401.394 293.748 400.749 293.95 400.16L296.95 391.84C297.163 391.256 297.596 390.778 298.156 390.509C298.717 390.239 299.361 390.2 299.95 390.4V390.4C300.534 390.613 301.012 391.046 301.281 391.607C301.551 392.167 301.59 392.811 301.39 393.4L298.39 401.72C298.177 402.304 297.744 402.782 297.183 403.051C296.623 403.321 295.979 403.36 295.39 403.16V403.16Z" fill="#455A64"/>
<path d="M328 410.11L294.86 399.72L297.03 392.79L330.17 403.18C331.088 403.47 331.853 404.111 332.299 404.964C332.745 405.817 332.835 406.811 332.55 407.73V407.73C332.26 408.648 331.619 409.413 330.766 409.859C329.914 410.305 328.919 410.395 328 410.11V410.11Z" fill="#455A64"/>
<path d="M299.33 420.9C295.48 422.18 292.12 417.84 294.13 414.31C297.13 409.08 301.56 401.68 304.08 399.76C307.14 397.42 321.99 391.68 328.74 389.13C330.873 388.325 333.234 388.375 335.33 389.27C341.55 391.93 354.91 397.48 358.88 397.86C364.11 398.35 373.88 426.59 373.88 426.59C373.238 427.85 372.349 428.968 371.267 429.879C370.185 430.789 368.931 431.473 367.58 431.89C362.69 433.64 351.2 429.97 351.2 429.97C351.2 429.97 342.03 429.24 339.54 430.88C337.05 432.52 331.54 434.08 330.08 433.71C328.62 433.34 325.58 430.37 326.86 427.97L327.86 425.71C327.86 425.71 320.31 427.64 318.34 425C317.07 423.25 316.493 421.091 316.72 418.94C316.72 418.94 311.07 418.28 310.26 415.2C309.45 412.12 312.08 409.33 312.08 409.33L314.08 406.85L308.65 409.41C308.65 409.41 303.16 417.8 300.49 420.21C300.154 420.516 299.759 420.75 299.33 420.9V420.9Z" fill="#DA9FE9"/>
<path d="M346.25 399.76L412.51 391.45L398.75 373.2L433.75 341.93L463.5 379.3C470.41 387.45 474.75 396.72 474.34 407.55C474.07 414.55 471.14 421.78 462.34 426.01C441.61 435.96 359.94 427.89 359.94 427.89L346.25 399.76Z" fill="#DA9FE9"/>
<path d="M324.51 399.61C322.808 401.16 320.989 402.578 319.07 403.85C317.26 405.271 315.34 406.549 313.33 407.67C315.032 406.12 316.851 404.702 318.77 403.43C320.587 402.017 322.506 400.741 324.51 399.61V399.61Z" fill="#40074F"/>
<path d="M330.05 411.48C330.11 411.63 326.98 413.01 323.33 415.09C319.68 417.17 316.84 419.09 316.75 418.94C317.278 418.407 317.869 417.94 318.51 417.55C319.64 416.75 321.24 415.69 323.08 414.64C324.649 413.743 326.268 412.939 327.93 412.23C328.603 411.892 329.315 411.64 330.05 411.48Z" fill="#40074F"/>
<path d="M337.79 420.14C336.16 421.345 334.43 422.409 332.62 423.32C330.895 424.37 329.081 425.267 327.2 426C330.554 423.732 334.097 421.758 337.79 420.1V420.14Z" fill="#40074F"/>
<path d="M444.7 384.41C444.274 384.565 443.831 384.669 443.38 384.72L439.76 385.4C436.69 385.96 432.46 386.75 427.81 387.71C423.16 388.67 418.96 389.61 415.93 390.31L412.33 391.12C411.892 391.243 411.443 391.324 410.99 391.36C411.403 391.167 411.835 391.02 412.28 390.92C413.11 390.68 414.33 390.34 415.84 389.92C418.84 389.13 423.05 388.13 427.71 387.17C432.37 386.21 436.61 385.48 439.71 385.01C441.26 384.77 442.5 384.6 443.37 384.49C443.81 384.426 444.255 384.4 444.7 384.41Z" fill="#40074F"/>
<path d="M175.19 342.36C175.19 342.36 151.53 366.36 138.32 381.25C127.09 393.91 127.32 406.43 135.82 416.49C142.82 424.74 177.63 432.75 177.63 432.75L181.75 400L175.69 396.6L205.64 370.6L175.19 342.36Z" fill="#DA9FE9"/>
<path d="M219.66 410.17C219.66 410.17 217.73 402.11 214.99 400.17C212.25 398.23 206.99 400.17 206.99 400.17C206.282 398.351 204.935 396.854 203.2 395.96C200.45 394.69 188.44 390.9 188.44 390.9C188.44 390.9 182.32 387.73 178.32 392.16C178.32 392.16 176.21 395.53 175.15 395.74C174.09 395.95 168.75 395.37 167.38 402.02C166.01 408.67 163.32 410.28 164.7 415.02C166.08 419.76 163.61 421.25 164.32 424.62C165.03 427.99 168.62 432.99 171.57 432.81C174.52 432.63 191.39 432.81 191.39 432.81C191.39 432.81 197.92 432.42 198.13 426.31C198.13 426.31 201.72 426.31 201.72 422.09C201.72 422.09 205.94 424.41 207.62 420.83C207.62 420.83 214.16 421.67 214.62 416.61L212.93 409.61L219.66 410.17Z" fill="#DA9FE9"/>
<path d="M219.66 410.17H219.24L217.95 410.11L212.88 409.82L212.98 409.7C213.46 411.6 214.04 413.94 214.71 416.64V416.69C214.672 417.438 214.439 418.163 214.036 418.794C213.633 419.425 213.073 419.941 212.41 420.29C210.91 421.003 209.238 421.274 207.59 421.07L207.77 420.97C207.542 421.511 207.179 421.984 206.718 422.346C206.256 422.708 205.709 422.947 205.13 423.04C203.912 423.158 202.687 422.91 201.61 422.33L201.91 422.16C201.955 423.228 201.649 424.282 201.04 425.16C200.688 425.598 200.246 425.954 199.744 426.206C199.242 426.458 198.691 426.599 198.13 426.62L198.34 426.41C198.336 427.28 198.156 428.139 197.813 428.938C197.469 429.737 196.968 430.459 196.34 431.06C194.962 432.264 193.234 432.993 191.41 433.14V433.14C185.78 433.14 179.73 433.04 173.41 433.14H172.22H171.63C171.41 433.14 171.19 433.14 170.97 433.14C170.133 432.97 169.352 432.592 168.7 432.04C167.401 430.973 166.315 429.67 165.5 428.2C164.576 426.742 164.055 425.065 163.99 423.34C163.99 421.55 164.86 419.99 164.9 418.34C164.935 417.64 164.885 416.938 164.75 416.25C164.62 415.58 164.4 414.89 164.26 414.16C164.118 413.436 164.081 412.695 164.15 411.96C164.229 411.238 164.387 410.527 164.62 409.84C165.08 408.48 165.62 407.21 166.11 405.91C166.559 404.621 166.926 403.305 167.21 401.97C167.473 400.599 168.052 399.309 168.9 398.2C169.787 397.133 170.987 396.37 172.33 396.02C172.985 395.848 173.654 395.741 174.33 395.7C174.635 395.691 174.94 395.657 175.24 395.6C175.499 395.487 175.73 395.32 175.92 395.11C176.782 394.194 177.543 393.188 178.19 392.11V392.11C178.838 391.393 179.621 390.81 180.494 390.397C181.368 389.983 182.315 389.746 183.28 389.7C185.114 389.635 186.936 390.016 188.59 390.81C192.51 392.07 196.18 393.27 199.59 394.46C200.44 394.76 201.26 395.06 202.07 395.37C202.879 395.646 203.651 396.019 204.37 396.48C205.673 397.437 206.679 398.745 207.27 400.25L207.05 400.15C208.443 399.68 209.892 399.401 211.36 399.32C212.676 399.206 213.996 399.499 215.14 400.16C216.016 400.876 216.723 401.778 217.21 402.8C217.638 403.626 218.015 404.478 218.34 405.35C218.92 406.91 219.28 408.14 219.5 408.98L219.74 409.93C219.751 410.04 219.751 410.15 219.74 410.26C219.74 410.26 219.74 410.16 219.64 409.94L219.36 409C219.11 408.18 218.73 406.95 218.12 405.41C217.785 404.554 217.398 403.719 216.96 402.91C216.488 401.93 215.805 401.066 214.96 400.38C213.857 399.76 212.589 399.495 211.33 399.62C209.898 399.709 208.486 399.992 207.13 400.46L206.98 400.51L206.91 400.36C206.341 398.928 205.377 397.686 204.13 396.78C203.428 396.34 202.676 395.984 201.89 395.72C201.09 395.42 200.27 395.13 199.42 394.83C196.04 393.66 192.36 392.48 188.42 391.24C186.835 390.503 185.096 390.16 183.35 390.24C182.458 390.302 181.585 390.522 180.77 390.89C179.944 391.286 179.2 391.836 178.58 392.51V392.51C177.908 393.608 177.123 394.633 176.24 395.57C175.995 395.833 175.695 396.038 175.36 396.17C175.03 396.236 174.696 396.276 174.36 396.29C173.725 396.332 173.095 396.436 172.48 396.6C171.242 396.917 170.136 397.617 169.32 398.6C168.515 399.643 167.969 400.864 167.73 402.16C167.442 403.516 167.068 404.852 166.61 406.16C166.16 407.48 165.61 408.77 165.13 410.08C164.912 410.73 164.761 411.4 164.68 412.08C164.622 412.768 164.659 413.462 164.79 414.14C164.91 414.81 165.13 415.49 165.28 416.23C165.428 416.957 165.482 417.7 165.44 418.44C165.39 420.23 164.56 421.83 164.53 423.44C164.601 425.073 165.097 426.658 165.97 428.04C166.75 429.45 167.788 430.702 169.03 431.73C169.606 432.22 170.292 432.563 171.03 432.73C171.22 432.73 171.4 432.73 171.58 432.73H172.19H173.38C179.75 432.67 185.79 432.73 191.38 432.8C193.101 432.661 194.733 431.978 196.04 430.85C196.632 430.294 197.104 429.623 197.429 428.879C197.754 428.135 197.924 427.332 197.93 426.52V426.32H198.14C198.638 426.302 199.126 426.179 199.572 425.958C200.019 425.737 200.413 425.424 200.73 425.04C201.279 424.242 201.556 423.288 201.52 422.32V422L201.82 422.15C202.82 422.691 203.958 422.924 205.09 422.82C205.609 422.741 206.099 422.53 206.514 422.208C206.929 421.886 207.255 421.463 207.46 420.98L207.51 420.87H207.65C209.226 421.068 210.826 420.822 212.27 420.16C212.892 419.841 213.42 419.365 213.8 418.779C214.181 418.193 214.402 417.518 214.44 416.82C213.8 414.11 213.25 411.76 212.79 409.82V409.69H212.93L217.93 410.09L219.24 410.21C219.379 410.19 219.519 410.177 219.66 410.17V410.17Z" fill="#40074F"/>
<path d="M198.32 426.93C197.408 426.303 196.393 425.842 195.32 425.57C194.32 425.31 193.12 425.14 191.76 424.91L187.37 424.17C184.26 423.63 181.45 423.11 179.37 422.7C178.263 422.534 177.169 422.283 176.1 421.95C177.223 421.984 178.34 422.115 179.44 422.34C181.44 422.65 184.31 423.11 187.44 423.66L191.83 424.44C193.033 424.634 194.224 424.891 195.4 425.21C196.203 425.434 196.961 425.796 197.64 426.28C198.14 426.64 198.34 426.91 198.32 426.93Z" fill="#40074F"/>
<path d="M182.85 410.76C182.85 410.69 183.97 411.33 185.85 412.14C187.73 412.95 190.35 413.87 193.22 415.14C195.71 416.146 197.977 417.635 199.89 419.52C200.458 420.102 200.955 420.75 201.37 421.45C201.544 421.695 201.673 421.97 201.75 422.26C201.092 421.393 200.384 420.565 199.63 419.78C197.684 418.017 195.443 416.609 193.01 415.62C190.18 414.39 187.52 413.43 185.69 412.5C184.966 412.149 184.262 411.758 183.58 411.33C183.08 411 182.83 410.79 182.85 410.76Z" fill="#40074F"/>
<path d="M208.09 420.6C207.793 420.338 207.531 420.039 207.31 419.71C206.662 418.851 206.067 417.953 205.53 417.02C204.84 415.85 204.09 414.42 203.23 412.86C202.328 411.159 201.259 409.551 200.04 408.06C198.796 406.609 197.268 405.428 195.55 404.59C193.96 403.79 192.44 403.23 191.2 402.68C190.208 402.261 189.252 401.763 188.34 401.19C187.994 401.001 187.68 400.758 187.41 400.47C187.759 400.624 188.093 400.808 188.41 401.02C189.35 401.516 190.319 401.957 191.31 402.34C192.56 402.85 194.09 403.34 195.72 404.16C197.513 405.005 199.107 406.218 200.4 407.72C201.641 409.238 202.717 410.884 203.61 412.63L205.81 416.84C206.45 418.03 207.03 418.95 207.43 419.6C207.689 419.906 207.911 420.241 208.09 420.6Z" fill="#40074F"/>
<path d="M206.63 399.51C207.794 401.196 208.869 402.942 209.85 404.74C210.985 406.455 211.915 408.298 212.62 410.23C211.456 408.544 210.382 406.798 209.4 405C208.265 403.285 207.336 401.442 206.63 399.51V399.51Z" fill="#40074F"/>
<path d="M258.29 418.7L258.06 418.04C257.41 418.04 257.19 417.4 257.84 417.4L257.61 416.74C256.96 416.74 256.74 416.09 257.39 416.09L257.16 415.43C256.51 415.43 256.29 414.79 256.93 414.79L256.71 414.13C256.06 414.13 255.83 413.48 256.48 413.48L256.25 412.82C255.61 412.82 255.38 412.18 256.03 412.17L255.8 411.52C255.15 411.52 254.93 410.87 255.58 410.87L255.35 410.21C254.7 410.21 254.48 409.57 255.13 409.56L254.9 408.91C254.25 408.91 254.02 408.26 254.67 408.26L254.45 407.6C253.8 407.6 253.57 406.96 254.22 406.95L253.99 406.29C253.34 406.29 253.12 405.65 253.77 405.65L253.54 404.99C252.89 404.99 252.67 404.35 253.32 404.34L253.09 403.68C252.44 403.68 252.22 403.04 252.87 403.04L252.64 402.38C251.99 402.38 251.76 401.74 252.42 401.73L252.19 401.07C252.069 401.077 251.948 401.051 251.841 400.994C251.733 400.938 251.643 400.854 251.58 400.75H250.69C250.84 401.18 249.86 401.19 249.69 400.75H248.8C248.95 401.17 247.96 401.19 247.8 400.75H247C247.15 401.17 246.16 401.18 246 400.75H245.11C245.26 401.17 244.28 401.19 244.11 400.75H243.22C243.37 401.18 242.38 401.19 242.22 400.75H241.34C241.49 401.18 240.5 401.19 240.34 400.75H239.45C239.6 401.18 238.62 401.19 238.45 400.75H237.56C237.71 401.17 236.72 401.18 236.56 400.75H235.67C235.83 401.17 234.84 401.18 234.67 400.75H233.78C233.84 400.93 233.67 401.07 233.4 401.08L233.64 401.73C234.29 401.73 234.52 402.36 233.86 402.37L234.1 403.02C234.76 403.02 234.97 403.65 234.33 403.66L234.56 404.31C235.21 404.31 235.44 404.94 234.79 404.95L235.02 405.6C235.67 405.6 235.9 406.24 235.25 406.24L235.48 406.89C236.13 406.89 236.36 407.53 235.71 407.53L235.94 408.18C236.6 408.18 236.82 408.82 236.17 408.82L236.4 409.47C237.05 409.47 237.29 410.11 236.63 410.11L236.87 410.77C237.52 410.77 237.75 411.4 237.1 411.41L237.33 412.06C237.98 412.06 238.21 412.69 237.56 412.7L237.79 413.35C238.43 413.35 238.67 413.98 238.02 413.99L238.25 414.64C238.9 414.64 239.13 415.28 238.48 415.28L238.71 415.93C239.36 415.93 239.59 416.57 238.94 416.57L239.17 417.22C239.82 417.22 240.05 417.86 239.4 417.86L239.64 418.51C240.28 418.51 240.52 419.15 239.87 419.15L240.1 419.8C240.22 419.794 240.339 419.82 240.444 419.877C240.55 419.933 240.638 420.017 240.7 420.12H241.58C241.43 419.7 242.41 419.7 242.58 420.12H243.46C243.31 419.7 244.29 419.7 244.46 420.12H245.34C245.19 419.7 246.17 419.7 246.34 420.12H247.22C247.07 419.7 248.05 419.7 248.22 420.12H249.1C248.95 419.7 249.93 419.7 250.1 420.12H250.98C250.83 419.7 251.81 419.7 251.98 420.12H252.86C252.71 419.7 253.69 419.7 253.86 420.12H254.75C254.6 419.69 255.58 419.69 255.75 420.12H256.63C256.49 419.7 257.46 419.69 257.63 420.12H258.51C258.45 419.94 258.62 419.8 258.89 419.8L258.66 419.14C257.87 419.35 257.64 418.7 258.29 418.7Z" fill="#DA9FE9"/>
<path d="M258.29 418.7C258.29 418.7 258.14 418.7 258.01 418.8C257.973 418.839 257.952 418.891 257.952 418.945C257.952 418.999 257.973 419.051 258.01 419.09C258.073 419.162 258.152 419.219 258.24 419.257C258.328 419.295 258.424 419.313 258.52 419.31H258.57V419.36L258.81 420.02V420.08H258.74C258.55 420.08 258.37 420.19 258.43 420.35V420.42H257.37V420.34C257.324 420.262 257.258 420.199 257.179 420.157C257.099 420.114 257.01 420.095 256.92 420.1C256.71 420.1 256.53 420.19 256.59 420.34V420.43H255.48V420.34C255.438 420.265 255.374 420.205 255.298 420.166C255.221 420.127 255.135 420.111 255.05 420.12C254.85 420.12 254.68 420.2 254.74 420.34V420.44H253.58V420.33C253.536 420.262 253.475 420.207 253.403 420.17C253.331 420.133 253.251 420.116 253.17 420.12C252.98 420.12 252.82 420.2 252.88 420.33V420.44H251.69V420.32C251.69 420.21 251.5 420.13 251.31 420.12C251.12 420.11 250.97 420.2 251.03 420.32V420.45H249.81V420.32C249.81 420.22 249.63 420.14 249.44 420.13C249.25 420.12 249.12 420.21 249.17 420.32L249.23 420.46H247.99L247.94 420.32C247.902 420.26 247.848 420.212 247.785 420.18C247.722 420.148 247.651 420.134 247.58 420.14C247.4 420.14 247.27 420.21 247.32 420.32L247.39 420.46H246.12L246.07 420.31C246.07 420.22 245.91 420.15 245.73 420.14C245.55 420.13 245.43 420.21 245.47 420.31L245.54 420.46H244.25V420.3C244.25 420.22 244.1 420.15 243.92 420.14C243.74 420.13 243.63 420.21 243.67 420.3L243.75 420.46H242.44L242.38 420.3C242.38 420.22 242.24 420.16 242.06 420.15C241.88 420.14 241.78 420.21 241.82 420.3L241.9 420.47H240.55V420.3C240.55 420.24 240.38 420.15 240.22 420.15H240L239.94 419.98L239.71 419.33L239.64 419.15H239.87C240.2 419.15 240.12 418.85 239.76 418.85H239.54L239.47 418.67L239.24 418.02L239.17 417.84H239.4C239.73 417.84 239.66 417.54 239.3 417.55H239.07L239.01 417.37L238.77 416.72L238.7 416.53H238.94C239.26 416.53 239.19 416.25 238.84 416.25H238.6L238.54 416.07C238.47 415.87 238.38 415.65 238.3 415.42L238.23 415.23H238.48C238.79 415.23 238.72 414.95 238.38 414.95H238.14L238.07 414.77L237.84 414.12L237.77 413.92H238C238.32 413.92 238.25 413.66 237.91 413.65H237.66L237.59 413.47L237.36 412.82L237.29 412.62H237.54C237.84 412.62 237.78 412.36 237.45 412.36H237.2L237.13 412.17L236.9 411.52L236.82 411.32H237.08C237.38 411.32 237.32 411.07 236.99 411.07H236.73L236.66 410.88L236.43 410.23L236.36 410.03H236.61C236.91 410.03 236.85 409.78 236.52 409.78H236.27L236.2 409.59L236 409L235.92 408.8H236.18C236.48 408.8 236.42 408.55 236.09 408.55H235.84L235.77 408.36C235.69 408.153 235.61 407.933 235.53 407.7L235.46 407.5H235.72C236.01 407.5 235.95 407.26 235.63 407.26H235.37L235.3 407.06L235.07 406.41L235 406.21H235.26C235.55 406.21 235.49 405.97 235.17 405.97H234.91L234.84 405.77L234.61 405.12L234.53 404.92H234.8C235.09 404.92 235.03 404.68 234.71 404.68H234.45L234.38 404.48C234.3 404.28 234.22 404.05 234.14 403.83L234.07 403.63H234.33C234.62 403.63 234.57 403.39 234.25 403.39H234L233.92 403.19C233.85 402.99 233.77 402.77 233.7 402.55L233.63 402.35H233.89C234.2 402.35 234.11 402.1 233.81 402.11H233.54L233.47 401.91L233.24 401.26L233.17 401.05H233.43C233.57 401.05 233.64 400.97 233.62 400.92L233.5 400.72H234.98V400.92C234.98 400.98 235.09 401.03 235.25 401.03C235.41 401.03 235.47 400.97 235.44 400.91L235.36 400.71H236.8V400.9C236.8 400.97 236.91 401.02 237.08 401.02C237.25 401.02 237.3 400.96 237.27 400.9L237.18 400.7H238.62L238.67 400.9C238.67 400.97 238.79 401.02 238.95 401.02C239.11 401.02 239.17 400.96 239.14 400.9L239.06 400.7H240.5V400.9C240.5 400.97 240.61 401.02 240.78 401.02C240.95 401.02 241 400.96 240.97 400.9L240.89 400.7H242.32L242.37 400.9C242.37 400.97 242.48 401.02 242.65 401.02C242.82 401.02 242.87 400.96 242.85 400.89L242.77 400.7H244.19L244.24 400.9C244.24 400.97 244.36 401.02 244.53 401.02C244.7 401.02 244.75 400.96 244.72 400.89L244.64 400.7H246.06L246.11 400.9C246.11 400.97 246.23 401.02 246.4 401.02C246.57 401.02 246.63 400.96 246.6 400.89L246.52 400.7H248L248.05 400.88C248.05 400.96 248.18 401.01 248.35 401.01C248.52 401.01 248.58 400.95 248.55 400.88L248.47 400.69H249.87V400.87C249.87 400.95 250.01 401 250.17 401.01C250.33 401.02 250.41 400.94 250.38 400.87L250.31 400.68H251.7V400.86C251.7 400.92 251.86 401.01 252.01 401H252.24L252.3 401.19L252.53 401.85L252.59 402.03H252.36C252 402.03 252.13 402.33 252.46 402.32H252.68L252.75 402.5L252.97 403.16L253.03 403.34H252.81C252.44 403.34 252.58 403.66 252.91 403.64H253.13L253.19 403.82C253.27 404.05 253.34 404.27 253.42 404.48L253.47 404.65H253.26C252.88 404.65 253.02 404.98 253.37 404.96H253.58L253.64 405.14L253.86 405.79L253.92 405.96H253.71C253.32 405.96 253.47 406.31 253.82 406.29H254.02L254.08 406.46L254.3 407.12L254.36 407.28H254.16C253.75 407.28 253.92 407.64 254.27 407.62H254.47V407.78C254.55 408.02 254.62 408.23 254.7 408.44V408.59H254.51C254.08 408.59 254.27 408.97 254.63 408.94H255L255.05 409.09C255.13 409.34 255.21 409.55 255.28 409.75V409.89H255.1C254.66 409.89 254.87 410.3 255.23 410.27H255.4L255.45 410.42L255.68 411.08V411.21H255.51C255.3 411.21 255.21 411.31 255.27 411.42C255.309 411.483 255.366 411.534 255.434 411.566C255.501 411.597 255.576 411.609 255.65 411.6H255.81V411.73C255.9 411.98 255.97 412.18 256.03 412.38V412.51H255.88C255.66 412.51 255.57 412.62 255.62 412.74C255.665 412.805 255.727 412.857 255.799 412.89C255.871 412.924 255.951 412.937 256.03 412.93H256.17V413.04C256.25 413.3 256.32 413.5 256.39 413.7V413.81H256.25C256.01 413.81 255.92 413.93 255.98 414.05C256.027 414.117 256.09 414.17 256.163 414.206C256.237 414.241 256.319 414.256 256.4 414.25H256.53V414.35C256.62 414.61 256.69 414.81 256.75 415.01V415.1H257C256.74 415.1 256.64 415.24 256.72 415.37C256.772 415.436 256.839 415.489 256.915 415.524C256.992 415.559 257.076 415.575 257.16 415.57H257.27V415.65L257.49 416.31V416.39H257.39C257.11 416.39 257.01 416.55 257.11 416.69C257.165 416.759 257.235 416.813 257.315 416.85C257.395 416.886 257.482 416.903 257.57 416.9H257.65V416.96C257.75 417.26 257.81 417.45 257.86 417.62V417.67H257.8C257.44 417.67 257.38 417.9 257.52 418.05C257.647 418.169 257.816 418.233 257.99 418.23L258.15 418.76C258.15 418.86 258.15 418.9 258.15 418.89C258.15 418.88 258.15 418.84 258.08 418.74L258 418H258.05C257.835 418.005 257.627 417.926 257.47 417.78C257.427 417.738 257.397 417.685 257.383 417.626C257.368 417.568 257.371 417.507 257.39 417.45C257.436 417.386 257.498 417.334 257.57 417.301C257.642 417.268 257.721 417.254 257.8 417.26L257.75 417.32L257.51 416.66L257.61 416.72C257.484 416.727 257.358 416.704 257.243 416.651C257.128 416.599 257.027 416.52 256.95 416.42C256.77 416.21 256.95 415.92 257.34 415.94L257.27 416.01L257.03 415.35L257.17 415.43C257.034 415.438 256.897 415.411 256.774 415.354C256.65 415.296 256.542 415.209 256.46 415.1C256.3 414.86 256.52 414.59 256.88 414.61L256.79 414.71C256.73 414.51 256.65 414.31 256.56 414.05L256.72 414.15C256.575 414.156 256.431 414.126 256.302 414.061C256.172 413.996 256.062 413.9 255.98 413.78C255.82 413.53 256.07 413.27 256.42 413.29L256.32 413.4L256.09 412.74L256.27 412.85C256.121 412.859 255.972 412.828 255.839 412.762C255.706 412.695 255.592 412.594 255.51 412.47C255.35 412.21 255.62 411.95 255.97 411.98L255.86 412.1L255.62 411.44L255.82 411.56C255.666 411.566 255.514 411.533 255.377 411.463C255.241 411.393 255.124 411.288 255.04 411.16C254.89 410.88 255.17 410.64 255.51 410.66L255.39 410.79C255.32 410.59 255.24 410.38 255.16 410.13L255.38 410.26C255.219 410.271 255.059 410.237 254.916 410.163C254.773 410.089 254.654 409.977 254.57 409.84C254.42 409.57 254.72 409.32 255.06 409.34L254.93 409.48L254.69 408.83L254.93 408.97C254.767 408.971 254.606 408.933 254.462 408.858C254.317 408.783 254.193 408.674 254.1 408.54C253.96 408.25 254.27 408.01 254.6 408.03L254.46 408.18C254.39 407.97 254.32 407.76 254.23 407.52L254.48 407.67C254.313 407.68 254.147 407.644 253.999 407.566C253.851 407.489 253.727 407.373 253.64 407.23C253.49 406.93 253.82 406.7 254.15 406.72L254 407C253.93 406.79 253.85 406.58 253.77 406.35L254.03 406.5C253.861 406.511 253.691 406.474 253.541 406.395C253.391 406.315 253.266 406.196 253.18 406.05C253.03 405.75 253.36 405.52 253.69 405.53L253.54 405.7L253.31 405.04L253.58 405.2C253.408 405.209 253.237 405.171 253.086 405.09C252.934 405.009 252.807 404.888 252.72 404.74C252.57 404.44 252.91 404.2 253.24 404.22L253.08 404.39C253.01 404.18 252.93 403.97 252.85 403.73L253.13 403.9C252.955 403.911 252.781 403.873 252.627 403.79C252.473 403.707 252.346 403.582 252.26 403.43C252.11 403.13 252.46 402.89 252.79 402.91L252.62 403.09L252.39 402.43L252.68 402.6C252.503 402.612 252.326 402.574 252.17 402.489C252.014 402.404 251.885 402.276 251.8 402.12C251.66 401.82 252.01 401.58 252.33 401.6L252.16 401.78L251.93 401.12L252.23 401.3C252.05 401.307 251.871 401.265 251.712 401.179C251.554 401.093 251.422 400.965 251.33 400.81L251.63 400.98H250.74L250.91 400.79C250.938 400.858 250.942 400.933 250.922 401.004C250.902 401.074 250.859 401.136 250.8 401.18C250.672 401.263 250.522 401.305 250.37 401.3C250.188 401.308 250.006 401.274 249.84 401.2C249.665 401.125 249.525 400.985 249.45 400.81L249.75 400.99H248.87L249.04 400.8C249.069 400.868 249.075 400.943 249.055 401.015C249.034 401.086 248.99 401.148 248.93 401.19C248.799 401.276 248.646 401.321 248.49 401.32C248.311 401.32 248.134 401.283 247.97 401.21C247.792 401.135 247.649 400.996 247.57 400.82L247.88 401H246.99L247.17 400.8C247.2 400.869 247.206 400.947 247.186 401.019C247.166 401.092 247.121 401.156 247.06 401.2C246.928 401.281 246.775 401.323 246.62 401.32C246.437 401.325 246.256 401.288 246.09 401.21C245.91 401.138 245.766 400.998 245.69 400.82L246.01 401.01H245.12L245.3 400.82C245.329 400.888 245.335 400.963 245.315 401.035C245.294 401.106 245.25 401.168 245.19 401.21C245.059 401.295 244.906 401.34 244.75 401.34C244.564 401.34 244.381 401.303 244.21 401.23C244.122 401.193 244.042 401.138 243.975 401.069C243.908 401.001 243.855 400.919 243.82 400.83L244.14 401.02H243.25L243.43 400.83C243.461 400.897 243.468 400.974 243.447 401.045C243.427 401.117 243.382 401.179 243.32 401.22C243.188 401.31 243.03 401.356 242.87 401.35C242.688 401.35 242.507 401.313 242.34 401.24C242.16 401.168 242.016 401.028 241.94 400.85L242.26 401.04H241.38L241.56 400.84C241.59 400.909 241.596 400.987 241.576 401.059C241.556 401.132 241.511 401.196 241.45 401.24C241.316 401.326 241.159 401.368 241 401.36C240.813 401.37 240.628 401.332 240.46 401.25C240.282 401.175 240.139 401.036 240.06 400.86L240.39 401.05H239.5L239.69 400.85C239.718 400.919 239.723 400.996 239.703 401.069C239.683 401.141 239.64 401.205 239.58 401.25C239.442 401.335 239.282 401.38 239.12 401.38C238.936 401.381 238.755 401.34 238.59 401.26C238.41 401.188 238.266 401.048 238.19 400.87L238.52 401.06H237.63L237.82 400.86C237.849 400.93 237.853 401.008 237.831 401.081C237.809 401.154 237.763 401.217 237.7 401.26C237.568 401.35 237.41 401.396 237.25 401.39C237.064 401.389 236.881 401.352 236.71 401.28C236.531 401.201 236.389 401.059 236.31 400.88L236.64 401.08H235.76L235.95 400.88C235.977 400.949 235.979 401.025 235.957 401.096C235.936 401.166 235.891 401.228 235.83 401.27C235.697 401.359 235.54 401.404 235.38 401.4C235.194 401.4 235.011 401.363 234.84 401.29C234.749 401.254 234.667 401.2 234.598 401.132C234.53 401.063 234.476 400.98 234.44 400.89L234.77 401.09H233.88L234.07 400.89C234.18 401.23 233.84 401.42 233.5 401.42L233.69 401.21L233.93 401.86L233.59 401.67C233.779 401.657 233.967 401.698 234.134 401.789C234.3 401.879 234.438 402.015 234.53 402.18C234.67 402.5 234.29 402.73 233.97 402.71L234.16 402.5C234.24 402.72 234.32 402.93 234.39 403.14L234.06 402.94C234.251 402.938 234.44 402.983 234.61 403.07C234.699 403.106 234.78 403.16 234.847 403.229C234.914 403.298 234.966 403.38 235 403.47C235.11 403.8 234.73 404 234.43 403.98L234.62 403.78L234.85 404.43L234.52 404.23C234.83 404.23 235.38 404.43 235.46 404.76C235.54 405.09 235.19 405.29 234.89 405.27L235.08 405.07L235.31 405.72L234.98 405.52C235.3 405.52 235.84 405.73 235.92 406.05C236 406.37 235.65 406.58 235.35 406.56L235.54 406.36L235.77 407.01L235.44 406.81C235.76 406.81 236.3 407.02 236.38 407.35C236.46 407.68 236.11 407.87 235.81 407.85L236 407.65L236.23 408.3L235.9 408.11C236.094 408.107 236.287 408.152 236.46 408.24C236.547 408.277 236.626 408.332 236.691 408.401C236.756 408.47 236.807 408.551 236.84 408.64C236.95 408.97 236.57 409.16 236.27 409.14L236.46 408.94L236.69 409.59L236.37 409.4C236.68 409.4 237.23 409.61 237.3 409.93C237.37 410.25 237.03 410.45 236.73 410.43L236.92 410.23L237.15 410.88L236.83 410.69C237.14 410.69 237.69 410.9 237.76 411.23C237.83 411.56 237.48 411.73 237.19 411.72L237.38 411.52L237.61 412.18L237.29 411.99C237.61 411.99 238.15 412.2 238.21 412.52C238.27 412.84 237.94 413.02 237.65 413.01L237.83 412.82L238.06 413.47L237.75 413.28C238.07 413.28 238.6 413.49 238.67 413.81C238.74 414.13 238.4 414.31 238.11 414.29L238.29 414.11L238.52 414.76L238.22 414.57C238.53 414.57 239.06 414.79 239.13 415.1C239.2 415.41 238.86 415.6 238.58 415.58L238.75 415.4L238.98 416.05L238.68 415.87C238.99 415.87 239.52 416.08 239.59 416.4C239.66 416.72 239.32 416.89 239.04 416.87L239.2 416.69L239.43 417.34L239.14 417.17C239.45 417.17 239.98 417.38 240.04 417.69C240.1 418 239.77 418.17 239.5 418.16L239.66 417.98L239.89 418.63L239.61 418.46C239.92 418.46 240.43 418.67 240.5 418.98C240.57 419.29 240.23 419.46 239.96 419.44L240.11 419.27C240.2 419.5 240.27 419.73 240.34 419.92L240.07 419.76C240.246 419.755 240.42 419.797 240.574 419.882C240.729 419.966 240.858 420.09 240.95 420.24L240.67 420.08H241.55L241.4 420.24C241.25 419.55 242.58 419.65 242.8 420.24L242.53 420.09H243.42L243.27 420.24C243.12 419.56 244.43 419.66 244.65 420.24L244.4 420.09H245.28L245.14 420.24C244.99 419.57 246.29 419.67 246.5 420.24L246.26 420.1H247.14L247.01 420.24C246.86 419.58 248.15 419.68 248.35 420.24L248.12 420.11H249L248.87 420.24C248.73 419.59 250 419.69 250.19 420.24L249.98 420.12H250.86L250.75 420.24C250.61 419.6 251.85 419.7 252.04 420.24L251.85 420.13H252.73L252.62 420.24C252.49 419.62 253.7 419.72 253.88 420.24L253.71 420.14H254.59L254.5 420.24C254.37 419.64 255.5 419.73 255.72 420.24L255.57 420.15H256.45L256.37 420.23C256.26 419.64 257.42 419.76 257.56 420.23L257.44 420.16H258.32L258.26 420.22C258.18 419.96 258.46 419.83 258.7 419.84L258.65 419.9C258.57 419.65 258.5 419.43 258.43 419.24H258.51C258.39 419.243 258.271 419.218 258.163 419.165C258.056 419.113 257.962 419.036 257.89 418.94C257.868 418.919 257.85 418.893 257.838 418.865C257.826 418.836 257.82 418.806 257.82 418.775C257.82 418.744 257.826 418.714 257.838 418.685C257.85 418.657 257.868 418.631 257.89 418.61C257.959 418.597 258.03 418.598 258.099 418.614C258.168 418.629 258.233 418.659 258.29 418.7V418.7Z" fill="#40074F"/>
<path d="M219.66 410.23L243.36 411.42V412.78L213.98 414.29L212.88 409.76L219.66 410.23Z" fill="#D6B6E6"/>
<path d="M276.21 467.08H392.21L355.83 433.2C355.83 433.2 253.76 434.2 254.07 435.47C254.261 440.771 256.068 445.886 259.25 450.13C264.75 457.88 276.21 467.08 276.21 467.08Z" fill="#40074F"/>
<path d="M148 432.37C148.2 433.26 159.37 468.64 159.37 468.64L276.25 467.08L272.64 462.23L148.33 428.5L148 432.37Z" fill="#40074F"/>
<path d="M151.4 428.89L161.62 459.77L271.14 456.11L252.16 427.88L151.4 428.89Z" fill="#40074F"/>
<path d="M161.62 456.8L161.43 464.1L271.13 463.86L271.14 456.11L161.62 456.8Z" fill="#D6B6E6"/>
<path d="M151.4 428.89L151.26 434.59L161.43 464.1L161.62 456.8L151.4 428.89Z" fill="#D6B6E6"/>
<path d="M271.14 456.11V463.83L379.22 463.17L379.63 455.06L271.14 456.11Z" fill="#D6B6E6"/>
<path d="M252.16 427.88C252.16 427.88 263.57 427.28 273.36 427.42L348.22 428.5L379.63 455.07L271.14 456.07L252.16 427.88Z" fill="#40074F"/>
<path d="M271.14 463.83C271.096 463.654 271.079 463.472 271.09 463.29C271.09 462.87 271.09 462.36 271.03 461.75C271.03 460.32 271.03 458.41 270.94 456.11V456.22L263.64 445.32C260.46 440.52 257.64 436.16 255.56 432.99L253.16 429.22C252.852 428.768 252.578 428.293 252.34 427.8C252.708 428.209 253.043 428.647 253.34 429.11L255.88 432.79C258 435.9 260.88 440.23 264.08 445.03C266.81 449.19 269.32 453.03 271.28 456.03V456.08V456.14C271.28 458.44 271.21 460.35 271.19 461.78C271.19 462.39 271.19 462.9 271.13 463.32C271.155 463.489 271.159 463.66 271.14 463.83V463.83Z" fill="#40074F"/>
<path d="M253.46 450.88L233.61 451.28L228.38 443.12L247.57 442.91L253.46 450.88Z" fill="#D6B6E6"/>
<path d="M226.87 451.22H207.01L201.78 443.07L220.97 442.86L226.87 451.22Z" fill="#D6B6E6"/>
<path d="M200.25 451.22H180.39L175.16 443.07L194.35 442.86L200.25 451.22Z" fill="#D6B6E6"/>
<path d="M247.65 439.81L217.96 439.98L211.76 431.61L240.92 431.44L247.65 439.81Z" fill="#D6B6E6"/>
<path d="M208.13 439.9L178.44 440.07L172.24 431.7L201.41 431.54L208.13 439.9Z" fill="#D6B6E6"/>
<g opacity="0.3">
<path opacity="0.3" d="M242.37 442.97L232.45 449.47L233.61 451.28H236.86L248.25 443.83L247.57 442.91L242.37 442.97Z" fill="#DA9FE9"/>
</g>
<g opacity="0.3">
<path opacity="0.3" d="M219.93 442.86L206.31 450.14L205.58 449L217.6 442.89L219.93 442.86Z" fill="#DA9FE9"/>
</g>
<g opacity="0.3">
<path opacity="0.3" d="M221.17 443.13L207.07 451.14L211.95 451.17L222.42 444.92L221.17 443.13Z" fill="#DA9FE9"/>
</g>
<g opacity="0.3">
<path opacity="0.3" d="M180.39 451.22L194.35 442.86L189.3 442.91L178.69 448.57L180.39 451.22Z" fill="#DA9FE9"/>
</g>
<g opacity="0.3">
<path opacity="0.3" d="M240.92 431.44L242.12 432.94L226.51 439.98H217.96L217.05 438.76L236.04 431.44H240.92Z" fill="#DA9FE9"/>
</g>
<path d="M354.02 449.88L334.16 450.27L328.93 442.12L348.12 441.9L354.02 449.88Z" fill="#D6B6E6"/>
<path d="M327.42 450.22H307.56L302.33 442.06L321.52 441.85L327.42 450.22Z" fill="#D6B6E6"/>
<path d="M300.8 450.22H280.94L275.71 442.06L294.9 441.85L300.8 450.22Z" fill="#D6B6E6"/>
<path d="M348.2 438.81L318.51 438.97L312.31 430.61L341.47 430.44L348.2 438.81Z" fill="#D6B6E6"/>
<g opacity="0.3">
<path opacity="0.3" d="M342.93 441.96L333 448.46L334.16 450.27H337.41L348.8 442.82L348.12 441.9L342.93 441.96Z" fill="#DA9FE9"/>
</g>
<g opacity="0.3">
<path opacity="0.3" d="M320.48 441.85L306.87 449.13L306.13 447.99L318.15 441.88L320.48 441.85Z" fill="#DA9FE9"/>
</g>
<g opacity="0.3">
<path opacity="0.3" d="M321.72 442.13L307.62 450.13L312.5 450.17L322.98 443.91L321.72 442.13Z" fill="#DA9FE9"/>
</g>
<g opacity="0.3">
<path opacity="0.3" d="M280.94 450.22L294.9 441.85L289.85 441.9L279.25 447.56L280.94 450.22Z" fill="#DA9FE9"/>
</g>
<g opacity="0.3">
<path opacity="0.3" d="M341.47 430.44L342.68 431.93L327.06 438.97H318.51L317.61 437.75L336.59 430.44H341.47Z" fill="#DA9FE9"/>
</g>
<path d="M259.17 431.11C258.966 431.108 258.77 431.033 258.616 430.899C258.462 430.766 258.361 430.582 258.33 430.38C258.154 429.3 257.6 428.318 256.766 427.609C255.933 426.901 254.874 426.511 253.78 426.511C252.686 426.511 251.627 426.901 250.794 427.609C249.96 428.318 249.406 429.3 249.23 430.38C249.199 430.582 249.098 430.766 248.944 430.899C248.79 431.033 248.594 431.108 248.39 431.11V431.11C248.265 431.112 248.14 431.086 248.026 431.034C247.912 430.983 247.81 430.906 247.729 430.811C247.648 430.715 247.589 430.603 247.556 430.482C247.523 430.36 247.518 430.234 247.54 430.11C247.764 428.616 248.518 427.252 249.663 426.266C250.808 425.28 252.269 424.737 253.78 424.737C255.291 424.737 256.752 425.28 257.897 426.266C259.042 427.252 259.796 428.616 260.02 430.11C260.042 430.234 260.037 430.36 260.004 430.482C259.971 430.603 259.912 430.715 259.831 430.811C259.75 430.906 259.648 430.983 259.534 431.034C259.42 431.086 259.295 431.112 259.17 431.11Z" fill="#D6B6E6"/>
<path d="M259.17 431.11C259.17 431.11 259.3 431.11 259.5 430.98C259.642 430.906 259.758 430.791 259.833 430.65C259.908 430.509 259.938 430.349 259.92 430.19C259.691 428.936 259.092 427.78 258.2 426.87C257.481 426.13 256.587 425.584 255.6 425.283C254.614 424.982 253.567 424.936 252.558 425.149C251.549 425.361 250.61 425.826 249.828 426.499C249.047 427.173 248.449 428.033 248.09 429C247.99 429.281 247.91 429.568 247.85 429.86C247.795 429.967 247.767 430.085 247.767 430.205C247.767 430.325 247.795 430.443 247.85 430.55C247.911 430.629 247.991 430.691 248.082 430.731C248.173 430.771 248.272 430.788 248.372 430.78C248.471 430.772 248.566 430.739 248.65 430.685C248.733 430.631 248.802 430.557 248.85 430.47C248.93 430.32 248.96 429.91 249.06 429.65C249.152 429.36 249.269 429.079 249.41 428.81C249.802 428.077 250.376 427.456 251.076 427.008C251.776 426.56 252.58 426.299 253.41 426.25C254.555 426.192 255.683 426.551 256.584 427.26C257.485 427.97 258.098 428.983 258.31 430.11C258.303 430.276 258.341 430.441 258.42 430.587C258.5 430.733 258.617 430.855 258.76 430.94C258.96 431.05 259.09 431.04 259.09 431.07C258.968 431.118 258.832 431.118 258.71 431.07C258.559 431.014 258.428 430.917 258.33 430.79C258.218 430.606 258.144 430.402 258.11 430.19C257.961 429.579 257.689 429.005 257.311 428.503C256.933 428.001 256.456 427.581 255.91 427.27C255.155 426.856 254.299 426.666 253.44 426.72C252.457 426.786 251.526 427.185 250.8 427.85C250.394 428.199 250.055 428.619 249.8 429.09C249.673 429.329 249.569 429.581 249.49 429.84C249.39 430.12 249.42 430.32 249.27 430.72C249.188 430.897 249.061 431.05 248.901 431.162C248.741 431.275 248.555 431.343 248.36 431.36C248.166 431.373 247.972 431.335 247.797 431.251C247.622 431.167 247.471 431.039 247.36 430.88C247.247 430.714 247.181 430.52 247.17 430.32C247.174 430.145 247.198 429.97 247.24 429.8C247.307 429.481 247.393 429.167 247.5 428.86C247.924 427.706 248.663 426.694 249.634 425.939C250.604 425.184 251.767 424.717 252.99 424.59C253.98 424.489 254.98 424.616 255.913 424.963C256.846 425.31 257.687 425.866 258.37 426.59C259.286 427.562 259.864 428.803 260.02 430.13C260.036 430.324 259.989 430.518 259.887 430.684C259.784 430.85 259.631 430.978 259.45 431.05C259.3 431.16 259.17 431.12 259.17 431.11Z" fill="#40074F"/>
<path d="M263 435.8C262.798 435.798 262.603 435.725 262.449 435.593C262.295 435.461 262.193 435.28 262.16 435.08C261.984 434 261.43 433.018 260.596 432.309C259.763 431.601 258.704 431.211 257.61 431.211C256.516 431.211 255.457 431.601 254.624 432.309C253.79 433.018 253.236 434 253.06 435.08C253.027 435.28 252.925 435.461 252.771 435.593C252.618 435.725 252.422 435.798 252.22 435.8V435.8C252.095 435.802 251.97 435.776 251.856 435.724C251.742 435.673 251.64 435.596 251.559 435.501C251.478 435.405 251.419 435.293 251.386 435.172C251.353 435.05 251.348 434.924 251.37 434.8C251.608 433.317 252.367 431.967 253.511 430.992C254.654 430.018 256.108 429.482 257.61 429.482C259.112 429.482 260.566 430.018 261.709 430.992C262.853 431.967 263.612 433.317 263.85 434.8C263.872 434.924 263.867 435.05 263.834 435.172C263.801 435.293 263.742 435.405 263.661 435.501C263.58 435.596 263.478 435.673 263.364 435.724C263.25 435.776 263.125 435.802 263 435.8Z" fill="#D6B6E6"/>
<path d="M263 435.8C263 435.8 263.13 435.8 263.34 435.68C263.482 435.604 263.597 435.487 263.67 435.344C263.743 435.201 263.771 435.039 263.75 434.88C263.523 433.631 262.927 432.478 262.04 431.57C261.384 430.908 260.588 430.401 259.711 430.088C258.833 429.775 257.897 429.663 256.97 429.76C255.841 429.895 254.771 430.34 253.879 431.046C252.988 431.752 252.31 432.692 251.92 433.76C251.82 434.041 251.74 434.328 251.68 434.62C251.6 434.94 251.59 435.11 251.68 435.3C251.741 435.379 251.821 435.441 251.912 435.481C252.003 435.521 252.102 435.538 252.202 435.53C252.301 435.522 252.396 435.49 252.48 435.435C252.563 435.381 252.632 435.307 252.68 435.22C252.75 435.08 252.78 434.67 252.88 434.41C252.97 434.12 253.087 433.838 253.23 433.57C253.618 432.834 254.191 432.211 254.892 431.762C255.593 431.313 256.399 431.054 257.23 431.01C258.373 430.949 259.5 431.307 260.399 432.015C261.299 432.723 261.911 433.734 262.12 434.86C262.119 435.026 262.16 435.19 262.238 435.337C262.317 435.484 262.431 435.609 262.57 435.7C262.77 435.8 262.9 435.8 262.9 435.82C262.9 435.84 262.77 435.88 262.52 435.82C262.367 435.764 262.235 435.663 262.14 435.53C262.027 435.351 261.952 435.15 261.92 434.94C261.772 434.329 261.501 433.754 261.123 433.252C260.744 432.75 260.267 432.331 259.72 432.02C258.915 431.57 257.99 431.383 257.074 431.486C256.157 431.588 255.296 431.974 254.61 432.59C254.208 432.943 253.87 433.363 253.61 433.83C253.485 434.069 253.384 434.321 253.31 434.58C253.2 434.87 253.23 435.06 253.08 435.47C252.997 435.647 252.869 435.799 252.709 435.911C252.548 436.023 252.361 436.09 252.166 436.107C251.971 436.123 251.776 436.087 251.599 436.004C251.422 435.92 251.271 435.791 251.16 435.63C251.039 435.463 250.97 435.265 250.96 435.06C250.964 434.885 250.988 434.71 251.03 434.54C251.098 434.225 251.185 433.915 251.29 433.61C251.667 432.562 252.307 431.629 253.149 430.899C253.99 430.169 255.004 429.668 256.095 429.442C257.186 429.216 258.316 429.274 259.378 429.61C260.44 429.946 261.398 430.548 262.16 431.36C263.073 432.34 263.653 433.582 263.82 434.91C263.835 435.104 263.786 435.298 263.681 435.462C263.577 435.626 263.422 435.751 263.24 435.82C263.1 435.86 263 435.81 263 435.8Z" fill="#40074F"/>
<path d="M266.12 440.64C265.918 440.64 265.723 440.567 265.571 440.434C265.419 440.302 265.319 440.12 265.29 439.92C265.121 438.833 264.568 437.843 263.733 437.128C262.898 436.413 261.835 436.02 260.735 436.02C259.635 436.02 258.572 436.413 257.737 437.128C256.901 437.843 256.349 438.833 256.18 439.92C256.151 440.121 256.05 440.305 255.895 440.438C255.741 440.57 255.543 440.642 255.34 440.64V440.64C255.215 440.64 255.092 440.613 254.978 440.561C254.865 440.508 254.764 440.432 254.683 440.337C254.602 440.242 254.543 440.13 254.51 440.01C254.476 439.889 254.47 439.763 254.49 439.64C254.728 438.156 255.487 436.806 256.631 435.832C257.774 434.858 259.228 434.322 260.73 434.322C262.232 434.322 263.686 434.858 264.829 435.832C265.973 436.806 266.732 438.156 266.97 439.64C266.992 439.763 266.987 439.89 266.954 440.011C266.921 440.132 266.862 440.245 266.781 440.34C266.7 440.436 266.598 440.513 266.484 440.564C266.37 440.616 266.245 440.642 266.12 440.64V440.64Z" fill="#D6B6E6"/>
<path d="M266.12 440.64C266.12 440.64 266.26 440.64 266.46 440.52C266.603 440.445 266.721 440.329 266.796 440.186C266.871 440.043 266.9 439.88 266.88 439.72C266.653 438.469 266.053 437.315 265.16 436.41C264.507 435.747 263.713 435.24 262.837 434.927C261.961 434.614 261.025 434.502 260.1 434.6C258.97 434.731 257.898 435.175 257.006 435.882C256.114 436.588 255.437 437.53 255.05 438.6C254.944 438.879 254.864 439.167 254.81 439.46C254.73 439.78 254.71 439.95 254.81 440.14C254.869 440.221 254.949 440.285 255.04 440.327C255.132 440.369 255.232 440.386 255.332 440.378C255.432 440.37 255.529 440.337 255.612 440.281C255.696 440.225 255.764 440.149 255.81 440.06C255.88 439.91 255.91 439.51 256.02 439.25C256.1 438.958 256.214 438.676 256.36 438.41C256.637 437.893 257.002 437.43 257.44 437.04C258.202 436.372 259.155 435.961 260.164 435.866C261.173 435.771 262.186 435.996 263.06 436.51C263.635 436.852 264.131 437.314 264.512 437.864C264.893 438.415 265.152 439.041 265.27 439.7C265.265 439.866 265.304 440.03 265.383 440.175C265.462 440.321 265.578 440.444 265.72 440.53C265.92 440.64 266.06 440.64 266.05 440.66C266.04 440.68 265.92 440.72 265.68 440.66C265.532 440.595 265.401 440.496 265.3 440.37C265.179 440.19 265.101 439.985 265.07 439.77C264.924 439.159 264.654 438.585 264.275 438.084C263.896 437.583 263.418 437.166 262.87 436.86C262.355 436.571 261.787 436.388 261.199 436.323C260.612 436.257 260.018 436.311 259.452 436.48C258.886 436.648 258.359 436.929 257.904 437.306C257.448 437.682 257.073 438.146 256.8 438.67C256.675 438.909 256.574 439.16 256.5 439.42C256.39 439.71 256.42 439.9 256.27 440.3C256.189 440.477 256.064 440.63 255.906 440.744C255.748 440.858 255.564 440.929 255.37 440.95C255.176 440.96 254.984 440.921 254.809 440.837C254.634 440.753 254.483 440.627 254.37 440.47C254.252 440.302 254.186 440.104 254.18 439.9C254.179 439.724 254.203 439.549 254.25 439.38C254.309 439.063 254.396 438.751 254.51 438.45C254.887 437.402 255.527 436.469 256.369 435.739C257.21 435.009 258.224 434.507 259.315 434.282C260.406 434.056 261.536 434.114 262.598 434.45C263.66 434.785 264.618 435.388 265.38 436.2C266.292 437.178 266.87 438.422 267.03 439.75C267.045 439.944 266.996 440.137 266.891 440.301C266.787 440.466 266.632 440.591 266.45 440.66C266.26 440.7 266.12 440.65 266.12 440.64Z" fill="#40074F"/>
<path d="M269.22 445.81C269.018 445.808 268.823 445.735 268.669 445.603C268.515 445.471 268.413 445.29 268.38 445.09C268.204 444.01 267.65 443.028 266.816 442.319C265.983 441.611 264.924 441.221 263.83 441.221C262.736 441.221 261.677 441.611 260.844 442.319C260.01 443.028 259.456 444.01 259.28 445.09C259.247 445.29 259.145 445.471 258.991 445.603C258.838 445.735 258.642 445.808 258.44 445.81C258.315 445.812 258.19 445.786 258.076 445.734C257.962 445.683 257.86 445.606 257.779 445.511C257.698 445.415 257.639 445.303 257.606 445.182C257.573 445.06 257.568 444.934 257.59 444.81C257.828 443.327 258.587 441.977 259.731 441.002C260.874 440.028 262.328 439.492 263.83 439.492C265.332 439.492 266.786 440.028 267.929 441.002C269.073 441.977 269.832 443.327 270.07 444.81C270.092 444.934 270.087 445.06 270.054 445.182C270.021 445.303 269.962 445.415 269.881 445.511C269.8 445.606 269.698 445.683 269.584 445.734C269.47 445.786 269.345 445.812 269.22 445.81V445.81Z" fill="#D6B6E6"/>
<path d="M269.22 445.81C269.336 445.779 269.45 445.739 269.56 445.69C269.702 445.614 269.817 445.497 269.89 445.354C269.963 445.211 269.991 445.049 269.97 444.89C269.74 443.642 269.145 442.49 268.26 441.58C267.537 440.841 266.64 440.298 265.65 440C264.661 439.702 263.612 439.659 262.602 439.875C261.592 440.092 260.652 440.561 259.872 441.239C259.092 441.916 258.496 442.78 258.14 443.75C258.04 444.031 257.96 444.318 257.9 444.61C257.82 444.93 257.81 445.1 257.9 445.29C257.961 445.369 258.041 445.431 258.132 445.471C258.223 445.511 258.322 445.528 258.422 445.52C258.521 445.512 258.616 445.479 258.7 445.425C258.783 445.371 258.852 445.297 258.9 445.21C258.97 445.07 259 444.66 259.1 444.4C259.19 444.11 259.307 443.828 259.45 443.56C259.838 442.824 260.411 442.201 261.112 441.752C261.813 441.303 262.619 441.044 263.45 441C264.593 440.939 265.72 441.297 266.619 442.005C267.519 442.713 268.131 443.724 268.34 444.85C268.333 445.017 268.372 445.184 268.451 445.331C268.53 445.479 268.647 445.603 268.79 445.69C268.896 445.74 269.007 445.78 269.12 445.81C269.12 445.81 268.99 445.87 268.74 445.81C268.587 445.754 268.455 445.653 268.36 445.52C268.247 445.341 268.172 445.14 268.14 444.93C268.001 444.322 267.739 443.749 267.371 443.245C267.003 442.741 266.537 442.318 266 442C265.195 441.55 264.27 441.363 263.354 441.466C262.437 441.568 261.576 441.954 260.89 442.57C260.488 442.923 260.15 443.343 259.89 443.81C259.764 444.052 259.663 444.307 259.59 444.57C259.48 444.85 259.51 445.04 259.36 445.45C259.278 445.627 259.151 445.78 258.991 445.892C258.831 446.005 258.645 446.073 258.45 446.09C258.256 446.104 258.062 446.067 257.886 445.982C257.711 445.898 257.561 445.77 257.45 445.61C257.331 445.446 257.262 445.252 257.25 445.05C257.254 444.871 257.277 444.694 257.32 444.52C257.388 444.205 257.475 443.895 257.58 443.59C257.957 442.542 258.598 441.609 259.439 440.879C260.28 440.149 261.294 439.647 262.385 439.422C263.476 439.196 264.606 439.254 265.668 439.59C266.73 439.926 267.688 440.528 268.45 441.34C269.363 442.319 269.943 443.562 270.11 444.89C270.125 445.084 270.076 445.278 269.972 445.442C269.867 445.606 269.712 445.731 269.53 445.8C269.35 445.87 269.22 445.83 269.22 445.81Z" fill="#40074F"/>
<path d="M273.14 452.13C272.935 452.132 272.736 452.059 272.582 451.924C272.427 451.79 272.327 451.603 272.3 451.4C272.131 450.314 271.578 449.323 270.743 448.608C269.908 447.893 268.845 447.5 267.745 447.5C266.645 447.5 265.582 447.893 264.747 448.608C263.911 449.323 263.359 450.314 263.19 451.4C263.163 451.602 263.065 451.787 262.912 451.921C262.759 452.055 262.563 452.129 262.36 452.13V452.13C262.234 452.132 262.11 452.106 261.996 452.054C261.882 452.003 261.78 451.926 261.699 451.831C261.618 451.735 261.559 451.623 261.526 451.502C261.493 451.38 261.488 451.254 261.51 451.13C261.734 449.636 262.488 448.272 263.633 447.286C264.778 446.3 266.239 445.757 267.75 445.757C269.261 445.757 270.722 446.3 271.867 447.286C273.012 448.272 273.765 449.636 273.99 451.13C274.01 451.253 274.004 451.379 273.97 451.5C273.937 451.62 273.878 451.732 273.797 451.827C273.716 451.922 273.615 451.999 273.502 452.051C273.388 452.103 273.265 452.13 273.14 452.13V452.13Z" fill="#D6B6E6"/>
<path d="M273.14 452.13C273.14 452.13 273.27 452.13 273.47 452C273.613 451.927 273.729 451.813 273.805 451.671C273.88 451.53 273.91 451.369 273.89 451.21C273.661 449.956 273.062 448.8 272.17 447.89C271.449 447.151 270.552 446.607 269.563 446.309C268.574 446.011 267.526 445.968 266.516 446.185C265.506 446.401 264.568 446.87 263.789 447.548C263.01 448.226 262.415 449.09 262.06 450.06C261.957 450.34 261.877 450.627 261.82 450.92C261.74 451.25 261.73 451.42 261.82 451.61C261.881 451.689 261.961 451.751 262.052 451.791C262.143 451.831 262.242 451.848 262.342 451.84C262.441 451.832 262.536 451.799 262.62 451.745C262.704 451.691 262.772 451.617 262.82 451.53C262.89 451.38 262.92 450.97 263.03 450.71C263.116 450.421 263.233 450.143 263.38 449.88C263.654 449.364 264.016 448.901 264.45 448.51C265.212 447.842 266.165 447.431 267.174 447.336C268.183 447.241 269.197 447.466 270.07 447.98C270.646 448.321 271.142 448.783 271.524 449.333C271.905 449.884 272.163 450.511 272.28 451.17C272.275 451.336 272.314 451.5 272.393 451.646C272.472 451.791 272.589 451.914 272.73 452C272.84 452.051 272.954 452.094 273.07 452.13C273.07 452.13 272.93 452.19 272.69 452.13C272.542 452.065 272.411 451.966 272.31 451.84C272.188 451.661 272.113 451.455 272.09 451.24C271.959 450.634 271.707 450.06 271.347 449.555C270.988 449.05 270.53 448.623 270 448.3C269.253 447.876 268.397 447.684 267.54 447.75C266.556 447.814 265.622 448.209 264.89 448.87C264.498 449.22 264.176 449.641 263.94 450.11C263.812 450.349 263.708 450.6 263.63 450.86C263.52 451.14 263.55 451.34 263.4 451.74C263.321 451.917 263.195 452.07 263.037 452.182C262.879 452.295 262.693 452.363 262.5 452.38C262.306 452.393 262.112 452.355 261.937 452.271C261.762 452.187 261.611 452.059 261.5 451.9C261.387 451.734 261.321 451.541 261.31 451.34C261.309 451.164 261.333 450.989 261.38 450.82C261.436 450.502 261.523 450.191 261.64 449.89C262.063 448.735 262.802 447.721 263.773 446.965C264.743 446.208 265.906 445.739 267.13 445.61C268.12 445.509 269.12 445.636 270.053 445.983C270.986 446.33 271.827 446.886 272.51 447.61C273.423 448.588 274 449.832 274.16 451.16C274.174 451.353 274.126 451.544 274.024 451.708C273.921 451.872 273.769 451.998 273.59 452.07C273.27 452.19 273.13 452.14 273.14 452.13Z" fill="#40074F"/>
<path d="M161.84 465.39C161.525 464.016 161.378 462.609 161.4 461.2C161.25 459.799 161.274 458.385 161.47 456.99C161.786 458.364 161.937 459.77 161.92 461.18C162.064 462.581 162.037 463.995 161.84 465.39Z" fill="#40074F"/>
<path d="M271.14 460.25H270.86H270.03L266.85 460.34L255.13 460.55C245.24 460.7 231.58 460.8 216.49 460.85L177.85 461L166.14 461.05H162.14H161.86H162.14H162.97L166.15 460.96L177.86 460.74C187.75 460.6 201.42 460.5 216.51 460.44L255.15 460.3L266.86 460.25H270H270.83C270.933 460.232 271.038 460.232 271.14 460.25V460.25Z" fill="#40074F"/>
<path d="M358.46 459.41C358.46 459.55 339.03 459.67 315.05 459.67C291.07 459.67 271.63 459.55 271.63 459.41C271.63 459.27 291.07 459.15 315.05 459.15C339.03 459.15 358.46 459.27 358.46 459.41Z" fill="#40074F"/>
<path d="M378.3 460.93C378.3 461.08 364.52 461.19 347.53 461.19C330.54 461.19 316.77 461.08 316.77 460.93C316.77 460.78 330.54 460.67 347.53 460.67C364.52 460.67 378.3 460.79 378.3 460.93Z" fill="#40074F"/>
</svg>
