<svg width="31" height="31" viewBox="0 0 31 31" fill="none" xmlns="http://www.w3.org/2000/svg">
<g clip-path="url(#clip0_103:2)">
<path d="M31 15.5C31 19.6109 29.367 23.5533 26.4602 26.4602C23.5533 29.367 19.6109 31 15.5 31C11.3891 31 7.44666 29.367 4.53984 26.4602C1.63303 23.5533 -8.57218e-07 19.6109 -6.77527e-07 15.5C-4.97835e-07 11.3891 1.63303 7.44666 4.53984 4.53984C7.44666 1.63303 11.3891 -8.57218e-07 15.5 -6.77527e-07C19.6109 -4.97835e-07 23.5533 1.63303 26.4602 4.53984C29.367 7.44666 31 11.3891 31 15.5V15.5ZM16.4687 8.71875C16.4687 8.46182 16.3667 8.21542 16.185 8.03374C16.0033 7.85206 15.7569 7.75 15.5 7.75C15.2431 7.75 14.9967 7.85206 14.815 8.03374C14.6333 8.21542 14.5312 8.46182 14.5312 8.71875L14.5312 19.9427L10.3734 15.7829C10.2833 15.6928 10.1764 15.6214 10.0587 15.5726C9.94101 15.5239 9.81488 15.4988 9.6875 15.4988C9.56012 15.4988 9.43399 15.5239 9.31631 15.5726C9.19862 15.6214 9.0917 15.6928 9.00162 15.7829C8.91155 15.8729 8.84011 15.9799 8.79136 16.0976C8.74261 16.2152 8.71753 16.3414 8.71753 16.4687C8.71753 16.5961 8.74261 16.7223 8.79136 16.8399C8.84011 16.9576 8.91155 17.0646 9.00162 17.1546L14.8141 22.9671C14.9041 23.0573 15.011 23.1289 15.1287 23.1778C15.2464 23.2266 15.3726 23.2517 15.5 23.2517C15.6274 23.2517 15.7536 23.2266 15.8713 23.1778C15.989 23.1289 16.0959 23.0573 16.1859 22.9671L21.9984 17.1546C22.0884 17.0646 22.1599 16.9576 22.2086 16.8399C22.2574 16.7223 22.2825 16.5961 22.2825 16.4687C22.2825 16.3414 22.2574 16.2152 22.2086 16.0976C22.1599 15.9799 22.0884 15.8729 21.9984 15.7829C21.9083 15.6928 21.8014 15.6214 21.6837 15.5726C21.566 15.5239 21.4399 15.4988 21.3125 15.4988C21.1851 15.4988 21.059 15.5239 20.9413 15.5726C20.8236 15.6214 20.7167 15.6928 20.6266 15.7829L16.4687 19.9427L16.4687 8.71875Z" fill="black"/>
</g>
<defs>
<clipPath id="clip0_103:2">
<rect width="31" height="31" fill="white" transform="translate(31) rotate(90)"/>
</clipPath>
</defs>
</svg>
